<?xml version="1.0" encoding="UTF-8" standalone="no"?>
<svg
   xmlns:dc="http://purl.org/dc/elements/1.1/"
   xmlns:cc="http://creativecommons.org/ns#"
   xmlns:rdf="http://www.w3.org/1999/02/22-rdf-syntax-ns#"
   xmlns:svg="http://www.w3.org/2000/svg"
   xmlns="http://www.w3.org/2000/svg"
   xmlns:sodipodi="http://sodipodi.sourceforge.net/DTD/sodipodi-0.dtd"
   xmlns:inkscape="http://www.inkscape.org/namespaces/inkscape"
   width="49.999992"
   height="54.159843"
   viewBox="0 0 13.229165 14.329791"
   version="1.1"
   id="svg976"
   inkscape:version="1.0.1 (3bc2e813f5, 2020-09-07)"
   sodipodi:docname="drawing.svg">
  <defs
     id="defs970" />
  <sodipodi:namedview
     id="base"
     pagecolor="#ffffff"
     bordercolor="#666666"
     borderopacity="1.0"
     inkscape:pageopacity="0.0"
     inkscape:pageshadow="2"
     inkscape:zoom="0.35"
     inkscape:cx="23.513684"
     inkscape:cy="195.97787"
     inkscape:document-units="px"
     inkscape:current-layer="layer1"
     inkscape:document-rotation="0"
     showgrid="false"
     fit-margin-top="0"
     fit-margin-left="0"
     fit-margin-right="0"
     fit-margin-bottom="0"
     inkscape:window-width="1046"
     inkscape:window-height="490"
     inkscape:window-x="160"
     inkscape:window-y="83"
     inkscape:window-maximized="0"
     units="px"
     lock-margins="true" />
  <metadata
     id="metadata973">
    <rdf:RDF>
      <cc:Work
         rdf:about="">
        <dc:format>image/svg+xml</dc:format>
        <dc:type
           rdf:resource="http://purl.org/dc/dcmitype/StillImage" />
        <dc:title></dc:title>
      </cc:Work>
    </rdf:RDF>
  </metadata>
  <g
     inkscape:label="Layer 1"
     inkscape:groupmode="layer"
     id="layer1"
     transform="translate(-63.175496,-49.999999)">
    <path
       style="font-variation-settings:normal;opacity:1;vector-effect:none;fill:#0bb2e7;fill-opacity:1;stroke:none;stroke-width:0.00491477;stroke-linecap:butt;stroke-linejoin:miter;stroke-miterlimit:4;stroke-dasharray:none;stroke-dashoffset:0;stroke-opacity:1;stop-color:#000000;stop-opacity:1"
       d="m 67.840019,64.272089 c -0.107993,-0.04271 -0.220091,-0.121682 -0.331934,-0.233852 -0.14357,-0.143989 -0.178696,-0.201797 -0.23443,-0.385823 -0.05424,-0.179094 -0.06296,-0.263469 -0.05049,-0.488794 0.0132,-0.238392 0.03598,-0.327895 0.182883,-0.71811 0.346235,-0.919712 0.738143,-1.531916 1.864578,-2.912684 0.932627,-1.1432 1.412981,-1.50365 2.047267,-1.536233 0.250305,-0.01293 0.256948,-0.01143 0.358776,0.07826 0.109789,0.09667 0.173421,0.254158 0.173421,0.429179 0,0.239543 -0.23789,1.389829 -0.359638,1.738979 -0.283263,0.812353 -0.682461,1.60972 -1.171037,2.339057 -0.574925,0.858239 -1.077426,1.391562 -1.516942,1.609986 -0.236029,0.117301 -0.275486,0.127439 -0.527257,0.13566 -0.22324,0.0072 -0.301434,-0.0027 -0.435199,-0.05562 z"
       id="path1113"
       inkscape:export-xdpi="114.3"
       inkscape:export-ydpi="114.3" />
    <path
       style="font-variation-settings:normal;opacity:1;vector-effect:none;fill:#7e2e8f;fill-opacity:1;stroke:none;stroke-width:0.00491477;stroke-linecap:butt;stroke-linejoin:miter;stroke-miterlimit:4;stroke-dasharray:none;stroke-dashoffset:0;stroke-opacity:1;stop-color:#000000;stop-opacity:1"
       d="M 68.383871,57.442651 C 67.584364,57.393602 66.456002,57.113334 65.6063,56.752731 64.849881,56.431717 64.319753,56.098402 63.912677,55.687877 63.419385,55.190404 63.2053,54.79413 63.179289,54.330372 c -0.02176,-0.387929 0.04441,-0.550688 0.347994,-0.856084 0.252171,-0.25367 0.534781,-0.413842 0.827965,-0.469259 0.233293,-0.04409 0.834896,-0.03666 1.173296,0.01448 1.075815,0.162626 2.837475,0.803903 3.814162,1.388427 1.088027,0.651161 1.841297,1.444273 1.898361,1.998769 0.04317,0.419554 -0.08271,0.63843 -0.474367,0.824799 -0.134178,0.06384 -0.31079,0.132096 -0.392483,0.151663 -0.119983,0.02874 -1.421346,0.09826 -1.589306,0.0849 -0.02451,-0.0019 -0.204977,-0.01334 -0.40104,-0.02541 z"
       id="path1181"
       inkscape:export-xdpi="114.3"
       inkscape:export-ydpi="114.3" />
    <path
       style="font-variation-settings:normal;opacity:1;vector-effect:none;fill:#ed2128;fill-opacity:1;stroke:none;stroke-width:0.00491477;stroke-linecap:butt;stroke-linejoin:miter;stroke-miterlimit:4;stroke-dasharray:none;stroke-dashoffset:0;stroke-opacity:1;stop-color:#000000;stop-opacity:1"
       d="m 71.873872,55.91318 c -0.373723,-0.255469 -0.635395,-1.029969 -0.861907,-2.551085 -0.08019,-0.538526 -0.109422,-1.394867 -0.06152,-1.802258 0.102386,-0.870691 0.295314,-1.276837 0.701865,-1.477565 0.165062,-0.0815 0.212219,-0.09219 0.333423,-0.07566 0.36544,0.04988 0.656192,0.309468 0.899576,0.803151 0.430638,0.873519 0.516196,2.284533 0.219339,3.617346 -0.155255,0.697058 -0.510791,1.354649 -0.818768,1.514373 -0.124365,0.0645 -0.293223,0.0529 -0.412014,-0.02831 z"
       id="path1183"
       inkscape:export-xdpi="114.3"
       inkscape:export-ydpi="114.3" />
    <path
       style="font-variation-settings:normal;opacity:1;vector-effect:none;fill:#fab519;fill-opacity:1;stroke:none;stroke-width:0.00491477;stroke-linecap:butt;stroke-linejoin:miter;stroke-miterlimit:4;stroke-dasharray:none;stroke-dashoffset:0;stroke-opacity:1;stop-color:#000000;stop-opacity:1"
       d="m 73.484033,57.175896 c -0.320794,-0.03653 -0.434742,-0.172965 -0.435666,-0.521658 -5.29e-4,-0.172807 0.01455,-0.238443 0.08755,-0.382952 0.245769,-0.486463 0.88836,-1.032066 1.543272,-1.310345 0.190235,-0.08084 0.248954,-0.09071 0.611793,-0.102889 0.487212,-0.01636 0.694584,0.0201 0.866603,0.15236 0.185992,0.143009 0.247076,0.284812 0.247076,0.573574 0,0.224075 -0.009,0.258663 -0.129347,0.502394 -0.312846,0.633065 -0.930021,1.014793 -1.759794,1.088448 -0.374724,0.03326 -0.745392,0.03364 -1.031488,0.0011 z"
       id="path1185"
       inkscape:export-xdpi="114.3"
       inkscape:export-ydpi="114.3" />
    <path
       style="font-variation-settings:normal;opacity:1;vector-effect:none;fill:#91c53d;fill-opacity:1;stroke:none;stroke-width:0.00491477;stroke-linecap:butt;stroke-linejoin:miter;stroke-miterlimit:4;stroke-dasharray:none;stroke-dashoffset:0;stroke-opacity:1;stop-color:#000000;stop-opacity:1"
       d="m 74.161813,61.569658 c -0.263538,-0.153122 -0.670398,-0.610403 -0.927375,-1.042309 -0.05849,-0.09832 -0.222618,-0.440194 -0.364714,-0.759725 l -0.258356,-0.580966 0.01102,-0.476692 c 0.01225,-0.528968 0.02319,-0.566373 0.203893,-0.697652 0.212816,-0.154614 0.510835,-0.138307 0.823485,0.04506 0.319262,0.187246 0.834906,0.813249 1.092782,1.326662 0.17218,0.342803 0.244186,0.566542 0.299233,0.929808 0.06495,0.428598 0.0457,0.802474 -0.05102,0.990961 -0.154353,0.300809 -0.549696,0.427119 -0.828974,0.264852 z"
       id="path1187"
       inkscape:export-xdpi="114.3"
       inkscape:export-ydpi="114.3" />
  </g>
</svg>
